<svg width="111" height="40" viewBox="0 0 111 40" fill="none" xmlns="http://www.w3.org/2000/svg">
<g clip-path="url(#clip0_92_323)">
<mask id="mask0_92_323" style="mask-type:luminance" maskUnits="userSpaceOnUse" x="0" y="0" width="111" height="40">
<path d="M110.732 0.645142H0V39.3548H110.732V0.645142Z" fill="white"/>
</mask>
<g mask="url(#mask0_92_323)">
<path d="M11.1309 0.645142H0.653981C0.292797 0.645142 0 0.937935 0 1.29912V11.7761C0 12.1372 0.292797 12.43 0.653981 12.43H11.1309C11.4921 12.43 11.7849 12.1372 11.7849 11.7761V1.29912C11.7849 0.937935 11.4921 0.645142 11.1309 0.645142Z" fill="black"/>
<path d="M0 27.8145V38.2914C0 38.6525 0.292794 38.9453 0.653977 38.9453H11.1309C11.4921 38.9453 11.7849 38.6525 11.7849 38.2914V27.8145C11.7849 27.4532 11.4921 27.1604 11.1309 27.1604H0.653977C0.292794 27.1604 0 27.4532 0 27.8145Z" fill="black"/>
<path d="M0 14.5568V25.0337C0 25.3948 0.292797 25.6877 0.653981 25.6877H11.1309C11.4921 25.6877 11.7849 25.3948 11.7849 25.0337V14.5568C11.7849 14.1956 11.4921 13.9028 11.1309 13.9028H0.653981C0.292797 13.9028 0 14.1956 0 14.5568Z" fill="black"/>
<path d="M13.2585 27.8145V38.2914C13.2585 38.6525 13.5513 38.9453 13.9125 38.9453H24.3895C24.7507 38.9453 25.0434 38.6525 25.0434 38.2914V27.8145C25.0434 27.4532 24.7507 27.1604 24.3895 27.1604H13.9125C13.5513 27.1604 13.2585 27.4532 13.2585 27.8145Z" fill="#FF6400"/>
<path d="M13.2585 14.5568V25.0337C13.2585 25.3948 13.5513 25.6877 13.9125 25.6877H24.3895C24.7507 25.6877 25.0434 25.3948 25.0434 25.0337V14.5568C25.0434 14.1956 24.7507 13.9028 24.3895 13.9028H13.9125C13.5513 13.9028 13.2585 14.1956 13.2585 14.5568Z" fill="#FF6400"/>
<path d="M36.8271 13.9028H50.0051C54.7744 13.9028 57.2148 16.944 57.2148 20.2857C57.2148 23.4386 55.2635 25.5414 52.8975 26.0306C55.5639 26.4427 57.7039 29.0347 57.7039 32.1876C57.7039 35.9413 55.1891 38.9454 50.4198 38.9454H36.8299V13.9028H36.8271ZM48.8407 23.965C50.6432 23.965 51.7702 22.8006 51.7702 21.187C51.7702 19.5733 50.6432 18.4461 48.8407 18.4461H42.1573V23.965H48.8407ZM49.0295 34.4021C51.0579 34.4021 52.2594 33.2377 52.2594 31.4352C52.2594 29.8588 51.1323 28.5057 49.0295 28.5057H42.1601V34.3995H49.0295V34.4021Z" fill="black"/>
<path d="M89.8538 13.9028H103.032C107.801 13.9028 110.241 16.944 110.241 20.2857C110.241 23.4386 108.29 25.5414 105.924 26.0306C108.591 26.4427 110.731 29.0347 110.731 32.1876C110.731 35.9413 108.216 38.9454 103.446 38.9454H89.8565V13.9028H89.8538ZM101.867 23.965C103.67 23.965 104.797 22.8006 104.797 21.187C104.797 19.5733 103.67 18.4461 101.867 18.4461H95.1839V23.965H101.867ZM102.056 34.4021C104.084 34.4021 105.286 33.2377 105.286 31.4352C105.286 29.8588 104.159 28.5057 102.056 28.5057H95.1867V34.3995H102.056V34.4021Z" fill="black"/>
<path d="M73.4674 13.4935C81.0573 13.4935 86.5789 18.8902 86.5789 26.4242C86.5789 33.9583 81.0546 39.3549 73.4674 39.3549C65.8802 39.3549 60.3932 33.9583 60.3932 26.4242C60.3932 18.8902 65.9174 13.4935 73.4674 13.4935ZM73.4674 18.2149C68.847 18.2149 65.8776 21.7374 65.8776 26.4215C65.8776 31.1058 68.847 34.6282 73.4674 34.6282C78.0878 34.6282 81.0945 31.0686 81.0945 26.4215C81.0945 21.7746 78.0878 18.2149 73.4674 18.2149Z" fill="black"/>
</g>
</g>
<defs>
<clipPath id="clip0_92_323">
<rect width="110.968" height="40" fill="white"/>
</clipPath>
</defs>
</svg>
