<svg width="26" height="39" viewBox="0 0 26 39" fill="none" xmlns="http://www.w3.org/2000/svg">
<path d="M11.1309 0.645142H0.653981C0.292797 0.645142 0 0.937935 0 1.29912V11.7761C0 12.1372 0.292797 12.43 0.653981 12.43H11.1309C11.4921 12.43 11.7849 12.1372 11.7849 11.7761V1.29912C11.7849 0.937935 11.4921 0.645142 11.1309 0.645142Z" fill="black"/>
<path d="M0 27.8145V38.2914C0 38.6525 0.292794 38.9453 0.653977 38.9453H11.1309C11.4921 38.9453 11.7849 38.6525 11.7849 38.2914V27.8145C11.7849 27.4532 11.4921 27.1604 11.1309 27.1604H0.653977C0.292794 27.1604 0 27.4532 0 27.8145Z" fill="black"/>
<path d="M0 14.5568V25.0337C0 25.3948 0.292797 25.6877 0.653981 25.6877H11.1309C11.4921 25.6877 11.7849 25.3948 11.7849 25.0337V14.5568C11.7849 14.1956 11.4921 13.9028 11.1309 13.9028H0.653981C0.292797 13.9028 0 14.1956 0 14.5568Z" fill="black"/>
<path d="M13.2585 27.8145V38.2914C13.2585 38.6525 13.5513 38.9453 13.9125 38.9453H24.3895C24.7507 38.9453 25.0435 38.6525 25.0435 38.2914V27.8145C25.0435 27.4532 24.7507 27.1604 24.3895 27.1604H13.9125C13.5513 27.1604 13.2585 27.4532 13.2585 27.8145Z" fill="#FF6400"/>
<path d="M13.2585 14.5568V25.0337C13.2585 25.3948 13.5513 25.6877 13.9125 25.6877H24.3895C24.7507 25.6877 25.0435 25.3948 25.0435 25.0337V14.5568C25.0435 14.1956 24.7507 13.9028 24.3895 13.9028H13.9125C13.5513 13.9028 13.2585 14.1956 13.2585 14.5568Z" fill="#FF6400"/>
</svg>
